<svg width="46" height="40" viewBox="0 0 46 40" fill="none" xmlns="http://www.w3.org/2000/svg">
<g filter="url(#filter0_dd_107_259)">
<path d="M21.7541 37.4266L21.5045 37.3828C21.2537 37.3414 21.6074 37.3938 21.4004 37.3741C21.1934 37.3545 21.0656 37.2821 20.8789 37.2267C20.6921 37.1713 20.5257 37.0738 20.3391 37.0184C20.4643 37.0893 20.1522 36.963 20.3391 37.0184L19.8809 36.7588C19.4682 36.525 19.1036 36.2682 18.7191 36.0031L18.5539 35.9095L18.2628 35.647C18.0563 35.4861 17.8628 35.3103 17.6848 35.1212C15.8658 33.39 14.3354 31.4124 13.1555 29.2686C10.271 24.2943 8.5949 18.5344 8.79506 13.1512C8.85133 11.9928 9.0042 10.8489 9.2522 9.73005C9.3083 9.45268 9.38766 9.1818 9.48943 8.92008L9.57567 8.57537C9.63915 8.46334 9.66071 8.42525 9.64104 8.36684C9.80021 7.92082 10.0044 7.49385 10.2511 7.09122C10.7912 6.13794 9.20034 5.17054 8.65218 6.13812C8.63191 6.17389 8.52778 6.16521 8.50615 6.20338C7.60542 7.99659 7.08625 9.96613 6.97545 12.0101C6.79666 14.7818 7.04637 17.6015 7.71685 20.3823C8.44369 23.4958 9.61766 26.5395 11.2053 29.4261C12.4648 31.8162 14.0882 34.0439 16.0188 36.0315C17.1227 37.1472 18.4167 38.0799 19.8356 38.7826C20.4659 38.9976 21.1193 39.119 21.7707 39.1423C22.008 39.1545 22.2323 39.0794 22.3963 38.9328C22.5604 38.7861 22.6516 38.5793 22.6505 38.3559C22.6493 38.1326 22.5561 37.91 22.3905 37.7351C22.2248 37.5602 21.9995 37.4468 21.7622 37.4185L21.7541 37.4266Z" fill="#030604"/>
<path d="M28.3339 36.5422C28.1217 36.6103 27.8975 36.6486 27.6679 36.656C27.9606 36.6236 27.6253 36.6319 27.565 36.645C27.5049 36.658 27.3554 36.6238 27.1897 36.6307L26.8773 36.5985C27.1268 36.6423 26.8347 36.5744 26.7305 36.5657C26.5025 36.4838 26.3159 36.4283 26.0865 36.3488L25.9213 36.2552C26.1507 36.3348 25.9613 36.2779 25.9213 36.2552L25.5885 36.0667C25.3495 35.9382 25.1206 35.7917 24.9044 35.6287L24.593 35.402L24.4056 35.2485C24.553 35.3793 24.4482 35.2727 24.4056 35.2485C24.1795 35.0702 23.9363 34.8348 23.6583 34.63C21.5457 32.6462 19.9372 30.164 18.5765 27.5295C16.9067 24.2702 15.6871 20.8551 14.9504 17.375C14.6294 15.8325 14.4083 14.2816 14.2886 12.7313C14.2083 11.4181 14.2513 10.112 14.4172 8.82806C14.5081 8.20527 14.6425 7.59268 14.8195 6.99402C14.8411 6.95584 14.9038 6.74581 14.8614 6.92006L14.924 6.71007C14.9875 6.59805 15.0326 6.42528 15.0947 6.31565L15.4525 5.6841C15.4741 5.64597 15.7247 5.29682 15.5578 5.49821C15.6213 5.3862 15.7247 5.29682 15.7881 5.18481C15.8929 5.09931 15.9361 5.02306 16.0381 4.93606C16.1402 4.84906 16.2921 4.68644 16.2287 4.79845C16.1652 4.91046 16.3963 4.69508 16.4165 4.65933C16.5094 4.58821 16.6147 4.53213 16.7288 4.4931C16.8748 4.42787 16.8146 4.44098 16.8748 4.42787C17.0851 4.34863 16.7504 4.45497 16.8748 4.42787C16.9992 4.40076 17.0851 4.34863 17.1879 4.35965C17.2851 4.34712 17.3768 4.31631 17.458 4.26897C17.5391 4.22165 17.608 4.15872 17.6607 4.08379C17.7135 4.00888 17.749 3.92342 17.7653 3.83231C17.7816 3.7412 17.7784 3.64622 17.7558 3.5528C17.7332 3.45938 17.6917 3.36934 17.6336 3.28782C17.5755 3.2063 17.502 3.13491 17.4173 3.07771C17.3326 3.02052 17.2383 2.97863 17.1399 2.95446C17.0414 2.93028 16.9407 2.9243 16.8436 2.93684L16.7191 2.96395C16.1959 3.11138 15.5931 2.91473 15.2174 3.19297C13.9415 4.09141 13.2655 5.6697 12.8795 7.22027C12.2176 10.0343 12.4486 13.2095 12.9959 16.2175C13.6658 20.0524 14.9059 23.8293 16.6786 27.4332C18.0976 30.3495 19.852 33.2575 22.2112 35.5763C23.194 36.5868 24.3653 37.4174 25.6544 38.0181C26.9432 38.5499 28.1745 38.4132 29.3636 37.9598C29.7828 37.8038 30.7856 36.9962 30.5809 36.5875C30.2281 36.142 28.769 36.3951 28.3499 36.5513L28.3339 36.5422Z" fill="#030604"/>
<path d="M32.3551 34.1077L32.1037 34.1604C31.9177 34.2031 32.3133 34.1816 32.0422 34.1759C31.8687 34.169 31.6947 34.1524 31.5214 34.1264C31.3143 34.1068 31.6681 34.1592 31.564 34.1506L31.4585 34.1381L31.2291 34.0585L30.9998 33.9789C30.9173 33.9322 30.6494 33.8277 30.8571 33.9454C30.4688 33.7584 30.0996 33.5334 29.7562 33.2744L29.631 33.2035C29.4448 33.0477 29.7562 33.2744 29.5883 33.1793L29.3014 32.916C29.0961 32.7526 28.9016 32.5772 28.7192 32.391C27.9133 31.5898 27.1743 30.732 26.5099 29.8266C25.6947 28.6724 24.9642 27.4715 24.324 26.2334C22.859 23.3952 21.7375 20.4353 20.9826 17.4146C20.2696 14.7809 19.9375 12.1011 19.9956 9.45107L20.0175 9.12037C20.0231 8.96374 20.0383 8.80837 20.0631 8.65507C20.1074 8.38428 20.1078 8.09171 20.1778 7.77566C20.2195 7.50335 20.3065 7.25668 20.3495 6.98828C20.3703 6.85211 20.4337 6.7401 20.433 6.64211L20.4565 6.50745C20.5193 6.29744 20.3931 6.61946 20.4768 6.4717C20.5605 6.32394 20.6448 6.0758 20.7718 5.85178L21.0418 5.37514C20.9797 5.48477 21.1694 5.24911 21.1897 5.21336C21.2099 5.17761 21.3147 5.08586 21.3566 5.01198C21.4101 4.9383 21.4823 4.87898 21.5673 4.83862C21.6105 4.76236 21.42 4.89997 21.5471 4.87437C21.6073 4.86127 21.6289 4.82314 21.7133 4.77337C21.9142 4.64436 22.0482 4.44301 22.088 4.2101C22.1279 3.97725 22.0706 3.73023 21.9279 3.51917C21.8682 3.41567 21.7882 3.32263 21.6926 3.24561C21.597 3.16857 21.4877 3.10913 21.3712 3.07072C21.2548 3.03237 21.1336 3.01591 21.0148 3.02232C20.896 3.02873 20.782 3.05786 20.6797 3.108L20.6595 3.14374C19.0397 4.14014 18.4545 6.16656 18.2521 8.07615C18.0054 10.8778 18.2341 13.7411 18.9301 16.5604C19.6488 19.8486 20.7837 23.0796 22.3095 26.1815C23.5101 28.713 25.1114 31.0865 27.0536 33.2135C28.5449 34.7478 30.6056 36.2584 32.6625 35.9C32.7255 35.8884 32.7881 35.6783 32.8308 35.7025C32.9476 35.6916 33.0587 35.6575 33.1565 35.6025C33.2544 35.5475 33.3372 35.4725 33.3995 35.3827C33.4617 35.2928 33.5022 35.1898 33.5184 35.0802C33.5346 34.9707 33.5261 34.857 33.4934 34.7463C33.4606 34.6356 33.4045 34.5304 33.3285 34.4373C33.2525 34.3443 33.1582 34.2653 33.0517 34.2056C32.9452 34.1458 32.8288 34.1065 32.7098 34.0903C32.5908 34.0739 32.4718 34.0809 32.3605 34.1108L32.3551 34.1077Z" fill="#5BB279"/>
<path d="M35.1291 29.789C35.0689 29.8021 35.0046 29.8161 34.9648 29.7935C35.1717 29.8131 34.9005 29.8074 34.9648 29.7935C34.9005 29.8074 34.858 29.7833 34.7977 29.7964C34.9831 29.8542 34.5881 29.7752 34.7977 29.7964L34.4656 29.7058L34.2579 29.5881C34.1148 29.5149 33.9818 29.4236 33.8626 29.3171C33.82 29.293 33.6339 29.1371 33.7801 29.2703L33.5514 29.0903C33.253 28.8302 32.9695 28.5551 32.7024 28.2662C32.5507 28.1109 32.408 27.9481 32.2751 27.7786L32.1703 27.6719L31.9251 27.3347C31.6149 26.9134 31.3367 26.5103 31.0575 26.0594C30.4618 25.141 29.9377 24.1873 29.4898 23.2067C28.381 20.8645 27.5301 18.4406 26.9513 15.9761C26.6905 14.884 26.5258 13.8211 26.3665 12.7486C26.3008 12.2556 26.2689 11.7623 26.2711 11.2716C26.2912 11.0374 26.2523 10.8202 26.2724 10.586C26.2712 10.475 26.2795 10.365 26.2971 10.2569C26.2963 10.1588 26.3179 10.1207 26.3172 10.0227C26.3424 9.59309 26.4063 9.18857 26.4728 8.78551C26.5152 8.61119 26.5563 8.43933 26.6176 8.23793C26.6588 8.06606 26.5758 8.31181 26.6595 8.16405L26.7438 7.91592L26.9788 7.50125C27.0625 7.35349 26.8753 7.59061 26.9585 7.53699L27.0004 7.46311C27.0422 7.38923 27.105 7.3776 27.1482 7.30133C27.1914 7.22507 27.3361 7.1622 27.2301 7.2501C27.124 7.33794 27.2929 7.23846 27.3145 7.20033C27.3787 7.18637 27.545 7.08537 27.399 7.15062C27.253 7.21587 27.4606 7.13514 27.5234 7.1235C28.6085 6.85364 28.015 5.09446 26.9312 5.36194C25.4689 5.71402 24.8773 7.24258 24.6406 8.62899C24.3903 10.7336 24.5179 12.8965 25.0183 15.029C25.5654 17.7226 26.4197 20.3792 27.566 22.9511C28.4926 25.1278 29.7433 27.1931 31.2774 29.0802C32.3946 30.3994 34.0535 31.8303 35.7857 31.4863C36.8474 31.3511 36.2112 29.5678 35.1477 29.7995L35.1291 29.789Z" fill="#5BB279"/>
</g>
<defs>
<filter id="filter0_dd_107_259" x="3.91943" y="0.93042" width="35.4121" height="42.2131" filterUnits="userSpaceOnUse" color-interpolation-filters="sRGB">
<feFlood flood-opacity="0" result="BackgroundImageFix"/>
<feColorMatrix in="SourceAlpha" type="matrix" values="0 0 0 0 0 0 0 0 0 0 0 0 0 0 0 0 0 0 127 0" result="hardAlpha"/>
<feOffset dy="1"/>
<feGaussianBlur stdDeviation="1"/>
<feColorMatrix type="matrix" values="0 0 0 0 0.0627451 0 0 0 0 0.0941176 0 0 0 0 0.156863 0 0 0 0.06 0"/>
<feBlend mode="normal" in2="BackgroundImageFix" result="effect1_dropShadow_107_259"/>
<feColorMatrix in="SourceAlpha" type="matrix" values="0 0 0 0 0 0 0 0 0 0 0 0 0 0 0 0 0 0 127 0" result="hardAlpha"/>
<feOffset dy="1"/>
<feGaussianBlur stdDeviation="1.5"/>
<feColorMatrix type="matrix" values="0 0 0 0 0.0627451 0 0 0 0 0.0941176 0 0 0 0 0.156863 0 0 0 0.1 0"/>
<feBlend mode="normal" in2="effect1_dropShadow_107_259" result="effect2_dropShadow_107_259"/>
<feBlend mode="normal" in="SourceGraphic" in2="effect2_dropShadow_107_259" result="shape"/>
</filter>
</defs>
</svg>
